<svg id="Capa_1" enable-background="new 0 0 512 512" height="512" viewBox="0 0 512 512" width="512" xmlns="http://www.w3.org/2000/svg"><g><g><g><g><path d="m388.381 511.975c-22.979.001-44.761-12.859-55.476-34.355-40.952-82.157-86.564-154.505-127.713-212.982-7.5-10.659-24.254-5.2-24.025 7.832.885 50.284 3.09 108.549 7.52 173.281 2.336 34.136-23.443 63.704-57.58 66.04-34.147 2.348-63.704-23.443-66.041-57.58-7.93-272.043-31.362-426.331 37.628-449.004 61.153-20.02 104.627 55.902 194.62 177.066 7.315 9.848 22.926 5.277 23.787-6.96 2.704-38.39 6.96-79.47 13.338-122.447 5.024-33.845 36.536-57.208 70.379-52.187 33.846 5.024 54.77 36.26 52.187 70.379-15.878 209.807-3.077 277.4-5.366 369.853-1.564 63.21-26.238 71.593-63.258 71.064z" fill="#ffaf40"/></g></g><g><g fill="#ff993a"><path d="m457.008 71.06c-15.88 209.809-3.08 277.399-5.37 369.848-1.56 63.21-26.24 71.6-63.26 71.07-22.98 0-44.76-12.86-55.47-34.36-20.34-40.8-41.82-79.17-63.34-114.629 76.91-45.03 128.569-128.529 128.569-224.089 0-47.28-12.64-91.61-34.74-129.789 11.96-7.32 26.46-10.65 41.42-8.43 33.851 5.019 54.771 36.259 52.191 70.379z"/><path d="m131.11 511.788c-34.15 2.35-63.71-23.44-66.04-57.58-.68-23.23-1.47-45.6-2.31-67.1 24 7.34 49.49 11.28 75.89 11.28 16.01 0 31.68-1.45 46.89-4.23.9 16.69 1.94 33.9 3.15 51.59 2.339 34.14-23.441 63.709-57.58 66.04z"/></g></g><path d="m451.638 440.908c-1.56 63.21-26.24 71.6-63.26 71.07-22.98 0-44.76-12.86-55.47-34.36-1.23-2.47-2.47-4.93-3.71-7.38 59.49-42.57 103.029-106.009 119.889-179.629.761 59.579 3.761 101.469 2.551 150.299z" fill="#f97c15"/></g><path d="m102.694 5.207c-45.977 15.11-50.907 88.689-46.732 216.609.522 16.006 13.662 28.71 29.677 28.71h.61c16.772 0 30.227-13.884 29.677-30.647-1.17-35.682-1.598-66.434-.588-92.618 1.506-39.046 6.082-56.554 8.928-63.845 3.989 2.312 11.948 8.134 24.96 22.551 1.24 1.373 2.495 2.791 3.767 4.252 12.389 14.229 34.705 13.574 46.098-1.463.125-.165.25-.33.375-.495 8.516-11.231 7.972-26.883-1.288-37.51-33.595-38.556-61.87-56.548-95.484-45.544z" fill="#ffc751"/><path d="m115.337 127.26c.829-21.497 2.589-36.463 4.478-46.791 1.972-10.783-2.077-21.778-10.631-28.634-.16-.128-.32-.257-.481-.385-17.453-13.993-43.633-4.435-47.771 17.548-5.159 27.406-6.574 63.131-6.051 106.944.196 16.424 13.569 29.644 29.995 29.644 16.702 0 30.19-13.652 29.991-30.353-.208-17.445-.092-33.416.47-47.973z" fill="#ffe059"/><path d="m329.367 90.308c-1.825 14.702-3.412 29.143-4.779 43.284-1.703 17.615 12.161 32.854 29.858 32.854h.022c15.458 0 28.363-11.752 29.847-27.138 1.342-13.905 2.868-27.77 4.573-41.546 2.219-17.922-11.695-33.758-29.754-33.758-15.134-.001-27.902 11.283-29.767 26.304z" fill="#ffc751"/><path d="m325.482 339.542c-14.757-24.608-30.274-49.095-46.509-73.383-9.651-14.438-29.536-17.577-43.142-6.784-.186.148-.372.295-.558.443-12.089 9.602-14.729 26.877-6.15 39.713 14.79 22.128 29.909 45.842 44.974 70.968 9.393 15.666 30.618 19.223 44.545 7.404.183-.155.365-.31.548-.465 11.073-9.416 13.767-25.43 6.292-37.896z" fill="#ffc751"/><circle cx="319.829" cy="314.31" fill="#ffe059" r="30"/><g><circle cx="89.994" cy="308.512" fill="#ffc751" r="30"/></g></g></svg>